<svg height="496pt" viewBox="0 0 496 496" width="496pt" xmlns="http://www.w3.org/2000/svg"><path d="m496 184c0-48.519531-39.480469-88-88-88h-168c-13.230469 0-24 10.769531-24 24v8h-24c-10.414062 0-19.214844 6.710938-22.527344 16h-25.472656c-13.230469 0-24 10.769531-24 24v8h-48v16h48v8c0 13.230469 10.769531 24 24 24h25.472656c3.3125 9.289062 12.113282 16 22.527344 16h24v8c0 13.230469 10.769531 24 24 24h96v16h-24c-4.414062 0-8 3.574219-8 8v48c0 4.425781 3.585938 8 8 8h24v64h-25.824219c-16.582031 0-31.632812 10.433594-37.457031 25.953125l-16.214844 43.230469c-.917968 2.464844-.574218 5.207031.921875 7.367187 1.496094 2.160157 3.949219 3.449219 6.574219 3.449219h192c4.414062 0 8-3.574219 8-8v-64c0-4.425781-3.585938-8-8-8h-8v-152c0-.550781-.207031-1.039062-.3125-1.558594 28.617188-14.546875 48.3125-44.203125 48.3125-78.441406zm-104-72v32h-48v-32zm-64 0v32h-48v-32zm-192 88v-32c0-4.414062 3.59375-8 8-8h24v48h-24c-4.40625 0-8-3.585938-8-8zm56 24c-4.40625 0-8-3.585938-8-8v-64c0-4.414062 3.59375-8 8-8h24v80zm128 112v-32h16v32zm128 144h-172.457031l12.167969-32.433594c3.488281-9.308594 12.511718-15.566406 22.464843-15.566406h137.824219zm-16-96h-32v-80h32zm0-112v16h-40c-4.414062 0-8 3.574219-8 8v96c0 4.425781 3.585938 8 8 8h40v16h-80v-144zm-24-16h-168c-4.40625 0-8-3.585938-8-8v-128c0-4.414062 3.59375-8 8-8h24v40c0 4.425781 3.585938 8 8 8h128c4.414062 0 8-3.574219 8-8v-40c39.695312 0 72 32.296875 72 72s-32.304688 72-72 72zm0 0"/><path d="m248 192h16v48h-16zm0 0"/><path d="m280 192h16v48h-16zm0 0"/><path d="m312 192h16v48h-16zm0 0"/><path d="m344 192h16v48h-16zm0 0"/><path d="m384 448h16v16h-16zm0 0"/><path d="m416 448h16v16h-16zm0 0"/><path d="m88 480h-72v-464h72v144h16v-152c0-4.425781-3.585938-8-8-8h-88c-4.414062 0-8 3.574219-8 8v480c0 4.425781 3.585938 8 8 8h88c4.414062 0 8-3.574219 8-8v-280h-16zm0 0"/><path d="m114.34375 69.660156 11.3125-11.3125 32.003906 32-11.316406 11.3125zm0 0"/><path d="m194.34375 90.339844 32-32 11.3125 11.316406-32 32zm0 0"/><path d="m168 48h16v40h-16zm0 0"/><path d="m114.34375 298.339844 32-32 11.3125 11.3125-32 32zm0 0"/><path d="m194.34375 277.660156 11.3125-11.316406 32 32-11.3125 11.316406zm0 0"/><path d="m168 280h16v40h-16zm0 0"/></svg>